<?xml version="1.0" standalone="no"?>
<!DOCTYPE svg PUBLIC "-//W3C//DTD SVG 20010904//EN"
 "http://www.w3.org/TR/2001/REC-SVG-20010904/DTD/svg10.dtd">
<svg version="1.0" xmlns="http://www.w3.org/2000/svg"
 width="600.000000pt" height="600.000000pt" viewBox="0 0 600.000000 600.000000"
 preserveAspectRatio="xMidYMid meet">
<metadata>
Created by potrace 1.11, written by Peter Selinger 2001-2013
</metadata>
<g transform="translate(0.000000,600.000000) scale(0.100000,-0.100000)"
fill="#000000" stroke="none">
<path d="M2910 3808 c-52 -90 -115 -199 -140 -243 -117 -201 -248 -428 -295
-510 -29 -49 -75 -130 -103 -179 -29 -49 -52 -91 -52 -94 0 -3 -6 -13 -14 -21
-7 -9 -27 -41 -43 -71 -29 -51 -153 -267 -174 -300 -43 -70 -197 -345 -194
-348 3 -3 2158 -5 2212 -3 8 1 2 19 -16 49 -15 26 -39 68 -53 93 -14 24 -49
85 -78 134 -29 50 -62 106 -72 125 -11 19 -46 80 -78 135 -32 55 -67 116 -77
135 -11 19 -62 107 -113 195 -51 88 -101 175 -111 193 -40 70 -63 109 -271
467 -118 204 -219 378 -224 388 -8 14 -26 -11 -104 -145z"/>
</g>
</svg>
