<?xml version="1.0" ?><!DOCTYPE svg  PUBLIC '-//W3C//DTD SVG 1.1//EN'  'http://www.w3.org/Graphics/SVG/1.1/DTD/svg11.dtd'><svg height="512px" id="Layer_1" style="enable-background:new 0 0 512 512;" version="1.1" viewBox="0 0 512 512" width="512px" xml:space="preserve" xmlns="http://www.w3.org/2000/svg" xmlns:xlink="http://www.w3.org/1999/xlink"><g id="Layer_1_1_"><circle cx="249.804" cy="256" r="243" style="fill:#E44F50;"/></g><g id="Layer_2"><g id="Favorite"/><g><path d="M493.412,129.291v333.07c0,4.95-0.01,9-0.01,9c0,0.01-1.27,3.86-2.81,8.56l-8.1,12.49    c-4.11,2.76-7.48,5.03-7.49,5.05c-0.01,0.01-4.07,0.03-9.02,0.03h-288.85c-4.95,0-6.5-3.19-3.45-7.09l8.74-11.14    c3.06-3.9,5.56-11.13,5.56-16.08v-333.89c0-4.95,4.05-9,9-9h287.43C489.362,120.291,493.412,124.341,493.412,129.291z" style="fill:#FDF1C1;"/><g style="adobe-blending-mode:multiply;"><path d="M248.397,218.62v-11.021h6.179v-43.193h-6.179v-11.021h19.409     l16.998,40.678v-29.657h-6.013v-11.021h20.729v11.021h-6.478v54.683h-10.298l-19.931-48.352v36.862h5.813v11.021L248.397,218.62     L248.397,218.62z" style="fill:#333333;adobe-blending-mode:normal;"/><path d="M302.709,218.62v-11.021h5.548v-43.193h-5.548v-11.021h40.727v20.682     h-8.837v-9.661h-14.317v15.054h11.561v11.021h-11.561v17.118h14.317v-9.755h8.837v20.776L302.709,218.62L302.709,218.62z" style="fill:#333333;adobe-blending-mode:normal;"/><path d="M363.832,219.041l-13.188-54.636h-4.883v-11.021h20.828v11.021h-4.783     l7.507,31.328l7.043-31.328h-4.186v-11.021h16.609v11.021h-4.285l7.573,31.328l7.275-31.328h-4.618v-11.021h18.503v11.021h-5.016     l-12.756,54.636h-8.637l-7.275-29.78l-6.876,29.78H363.832z" style="fill:#333333;adobe-blending-mode:normal;"/><path d="M416.417,218.62v-22.23h7.839c0.089,4.064,0.842,7.058,2.259,8.981     s3.034,2.884,4.851,2.884c1.417,0,2.612-0.696,3.587-2.087s1.462-3.025,1.462-4.901c0-2-0.477-3.681-1.429-5.042     c-0.952-1.36-2.692-2.909-5.221-4.647c-5.346-3.632-8.973-6.842-10.883-9.63c-1.909-2.787-2.864-6.546-2.864-11.275     c0-5.7,1.263-10.116,3.787-13.248s5.393-4.698,8.604-4.698c3.676,0,6.522,2.025,8.537,6.074v-5.417h7.807v19.838h-7.807     c-0.243-3.064-0.991-5.432-2.242-7.105c-1.251-1.672-2.707-2.509-4.368-2.509c-1.284,0-2.37,0.485-3.255,1.454     c-0.887,0.969-1.329,2.236-1.329,3.799c0,1.345,0.365,2.619,1.097,3.822c0.73,1.204,2.869,2.91,6.416,5.118     c3.415,2.147,6.034,4.088,7.858,5.825c1.825,1.736,3.268,3.99,4.33,6.759c1.061,2.77,1.592,5.969,1.592,9.599     c0,6.447-1.328,11.297-3.986,14.551c-2.657,3.254-5.802,4.881-9.434,4.881c-4.053,0-7.176-2.118-9.368-6.355v5.558h-7.84V218.62z     " style="fill:#333333;adobe-blending-mode:normal;"/></g><rect height="123.559" style="fill:#676764;" width="108.245" x="217.778" y="251.649"/><line style="fill:none;stroke:#676764;stroke-width:6;stroke-miterlimit:10;" x1="467.663" x2="342.006" y1="255.458" y2="255.458"/><line style="fill:none;stroke:#676764;stroke-width:6;stroke-miterlimit:10;" x1="467.663" x2="342.006" y1="269.633" y2="269.633"/><line style="fill:none;stroke:#676764;stroke-width:6;stroke-miterlimit:10;" x1="467.663" x2="342.006" y1="283.808" y2="283.808"/><line style="fill:none;stroke:#676764;stroke-width:6;stroke-miterlimit:10;" x1="467.663" x2="342.006" y1="297.983" y2="297.983"/><line style="fill:none;stroke:#676764;stroke-width:6;stroke-miterlimit:10;" x1="467.663" x2="342.006" y1="312.158" y2="312.158"/><line style="fill:none;stroke:#676764;stroke-width:6;stroke-miterlimit:10;" x1="467.663" x2="342.006" y1="326.333" y2="326.333"/><line style="fill:none;stroke:#676764;stroke-width:6;stroke-miterlimit:10;" x1="467.663" x2="342.006" y1="340.508" y2="340.508"/><line style="fill:none;stroke:#676764;stroke-width:6;stroke-miterlimit:10;" x1="467.663" x2="342.006" y1="354.683" y2="354.683"/><line style="fill:none;stroke:#676764;stroke-width:6;stroke-miterlimit:10;" x1="467.663" x2="342.006" y1="368.858" y2="368.858"/><line style="fill:none;stroke:#676764;stroke-width:6;stroke-miterlimit:10;" x1="217.778" x2="466.696" y1="399.055" y2="399.055"/><line style="fill:none;stroke:#676764;stroke-width:6;stroke-miterlimit:10;" x1="217.778" x2="466.696" y1="413.23" y2="413.23"/><line style="fill:none;stroke:#676764;stroke-width:6;stroke-miterlimit:10;" x1="217.778" x2="466.696" y1="427.405" y2="427.405"/><line style="fill:none;stroke:#676764;stroke-width:6;stroke-miterlimit:10;" x1="217.778" x2="466.696" y1="441.58" y2="441.58"/><line style="fill:none;stroke:#676764;stroke-width:6;stroke-miterlimit:10;" x1="217.778" x2="466.696" y1="455.755" y2="455.755"/><line style="fill:none;stroke:#676764;stroke-width:6;stroke-miterlimit:10;" x1="217.778" x2="466.696" y1="469.93" y2="469.93"/><g><path d="M493.412,455.751v6.61     c0,4.95-0.01,9-0.01,9c0,0.01-1.27,3.86-2.81,8.56l-8.1,12.49c-4.11,2.76-7.48,5.03-7.49,5.05c-0.01,0.01-4.07,0.03-9.02,0.03     h-288.85c-4.95,0-6.5-3.19-3.45-7.09l8.74-11.14c3.06-3.9,5.56-11.13,5.56-16.08v-7.43L493.412,455.751L493.412,455.751z" style="opacity:0.2;adobe-blending-mode:multiply;enable-background:new    ;"/></g><g><path d="M158.915,494.844c-5.701,3.151,0.978-1.333,2.396-2.597c2.201-1.963,4.356-3.983,6.606-5.89     c1.262-1.07,2.582-2.135,3.959-3.135c0.268-4.71,0.647-9.412,1.037-14.115c0.246-2.97,0.503-5.942,0.688-8.917     c0.031-0.498,0.078-1.916,0.122-3.168h-19.741v-229.45h-39.21v243.32c0,14.63,8.82,26.6,19.61,26.6h20.668     C156.227,496.504,157.522,495.614,158.915,494.844z" style="fill:#EBE3C5;"/><path d="M158.915,494.844     c-5.701,3.151,0.978-1.333,2.396-2.597c2.201-1.963,4.356-3.983,6.606-5.89c1.262-1.07,2.582-2.135,3.959-3.135     c0.268-4.71,0.647-9.412,1.037-14.115c0.246-2.97,0.503-5.942,0.688-8.917c0.031-0.498,0.078-1.916,0.122-3.168h-19.741v-229.45     h-39.21v243.32c0,14.63,8.82,26.6,19.61,26.6h20.668C156.227,496.504,157.522,495.614,158.915,494.844z" style="fill:#EBE3C5;adobe-blending-mode:multiply;enable-background:new    ;"/><path d="M158.915,494.844     c-5.701,3.151,0.978-1.333,2.396-2.597c2.201-1.963,4.356-3.983,6.606-5.89c1.262-1.07,2.582-2.135,3.959-3.135     c0.268-4.71,0.647-9.412,1.037-14.115c0.246-2.97,0.503-5.942,0.688-8.917c0.031-0.498,0.078-1.916,0.122-3.168h-19.741v-229.45     h-39.21v243.32c0,14.63,8.82,26.6,19.61,26.6h20.668C156.227,496.504,157.522,495.614,158.915,494.844z" style="fill:#EBE3C5;adobe-blending-mode:multiply;enable-background:new    ;"/></g><g><path d="M176.662,457.021v13.87     c0,14.63-8.82,26.6-19.6,26.6c-10.79,0-19.61-11.97-19.61-26.6v-243.32h16.53v229.45H176.662z" style="opacity:0.1;adobe-blending-mode:multiply;enable-background:new    ;"/></g><g><path d="M188.006,470.892c0,14.627-8.823,26.595-19.607,26.595s-19.607-11.968-19.607-26.595V179.373     h39.213L188.006,470.892L188.006,470.892z" style="fill:#EBE3C5;"/><path d="M188.006,470.892     c0,14.627-8.823,26.595-19.607,26.595s-19.607-11.968-19.607-26.595V179.373h39.213L188.006,470.892L188.006,470.892z" style="fill:#EBE3C5;adobe-blending-mode:multiply;enable-background:new    ;"/></g><g><path d="M188.002,179.371v291.52     c0,14.63-8.82,26.6-19.6,26.6c-1.97,0-3.88-0.4-5.67-1.15c8.04-3.32,13.93-13.49,13.93-25.45v-291.52H188.002z" style="opacity:0.1;adobe-blending-mode:multiply;enable-background:new    ;"/></g></g></g></svg>