<?xml version="1.0" ?><svg enable-background="new 0 0 64 64" height="64px" id="Layer_1" version="1.1" viewBox="0 0 64 64" width="64px" xml:space="preserve" xmlns="http://www.w3.org/2000/svg" xmlns:xlink="http://www.w3.org/1999/xlink"><circle cx="32" cy="32" fill="#76C2AF" r="32"/><path d="M55,34c-1.105,0-4,2-4,2h-4v-4c0-1.105-0.895-2-2-2H15c-1.105,0-2,0.895-2,2v2h-2  c-1.105,0-2,0.895-2,2v6c0,1.105,0.895,2,2,2h2v6c0,1.105,0.895,2,2,2h30c1.105,0,2-0.895,2-2v-4h4c0,0,2.895,2,4,2  c1.105,0,2-0.895,2-2V36C57,34.895,56.105,34,55,34z" fill="#231F20" opacity="0.2"/><path d="M47,48c0,1.105-0.895,2-2,2H15c-1.105,0-2-0.895-2-2V32c0-1.105,0.895-2,2-2h30c1.105,0,2,0.895,2,2V48z" fill="#E0E0D1"/><path d="M53,42c0,1.105-0.895,2-2,2H24c-1.105,0-2-0.895-2-2v-6c0-1.105,0.895-2,2-2h27c1.105,0,2,0.895,2,2V42z" fill="#E0E0D1"/><path d="M40,40c0,1.105-0.895,2-2,2H11c-1.105,0-2-0.895-2-2v-6c0-1.105,0.895-2,2-2h27c1.105,0,2,0.895,2,2V40z" fill="#E0E0D1"/><path d="M57,44c0,1.105-0.895,2-2,2l0,0c-1.105,0-4-2-4-2V34c0,0,2.895-2,4-2l0,0c1.105,0,2,0.895,2,2V44z" fill="#E0E0D1"/><circle cx="21" cy="22" fill="#231F20" opacity="0.2" r="10"/><circle cx="39" cy="24" fill="#231F20" opacity="0.2" r="8"/><circle cx="21" cy="20" fill="#FFFFFF" r="10"/><circle cx="39" cy="22" fill="#FFFFFF" r="8"/></svg>